# xmcd
# 
# Track frame offsets:
#     187
#     20565
#     48952
#     86317
#     129615
#     156447
#     196680
#     233457
#     260997
#     307975
# 
# Disc length: 4377
# 
# Revision: 0
# Processed by: cddbd v1.5.2PL0 Copyright (c) Steve Scherf et al.
# Submitted via: BonkEnc v1.0.8
# 
DISCID=7911170a
DTITLE=Joe Henderson - So Near, So Far (Musings For Miles)
DYEAR=1992
DGENRE=Jazz
TTITLE0=Miles Ahead
TTITLE1=Joshua
TTITLE2=Pfrancing (No Blues)
TTITLE3=Flamenco Sketches
TTITLE4=Milestones
TTITLE5=Teo
TTITLE6=Swing Spring
TTITLE7=Circle
TTITLE8=Side Car
TTITLE9=So Near, So Far
EXTD=
EXTT0=
EXTT1=
EXTT2=
EXTT3=
EXTT4=
EXTT5=
EXTT6=
EXTT7=
EXTT8=
EXTT9=
PLAYORDER=
